<?xml version="1.0" encoding="UTF-8" standalone="no"?>
<svg
   width="32"
   height="32"
   viewBox="0 0 32 32"
   fill="none"
   version="1.1"
   id="svg3"
   sodipodi:docname="discord-icon.svg"
   xml:space="preserve"
   inkscape:version="1.3.2 (091e20e, 2023-11-25, custom)"
   xmlns:inkscape="http://www.inkscape.org/namespaces/inkscape"
   xmlns:sodipodi="http://sodipodi.sourceforge.net/DTD/sodipodi-0.dtd"
   xmlns="http://www.w3.org/2000/svg"
   xmlns:svg="http://www.w3.org/2000/svg"><defs
     id="defs3"><inkscape:path-effect
       effect="spiro"
       id="path-effect7"
       is_visible="true"
       lpeversion="1" /><inkscape:path-effect
       effect="spiro"
       id="path-effect5"
       is_visible="true"
       lpeversion="1" /><inkscape:path-effect
       effect="spiro"
       id="path-effect5-8"
       is_visible="true"
       lpeversion="1" /></defs><sodipodi:namedview
     id="namedview3"
     pagecolor="#ffffff"
     bordercolor="#000000"
     borderopacity="0.25"
     inkscape:showpageshadow="2"
     inkscape:pageopacity="0.0"
     inkscape:pagecheckerboard="0"
     inkscape:deskcolor="#d1d1d1"
     inkscape:zoom="12.703125"
     inkscape:cx="10.942189"
     inkscape:cy="17.515375"
     inkscape:window-width="1920"
     inkscape:window-height="1009"
     inkscape:window-x="1672"
     inkscape:window-y="-8"
     inkscape:window-maximized="1"
     inkscape:current-layer="svg3" /><ellipse
     style="fill:none;stroke:#ffffff;stroke-width:2.0552;stroke-linecap:round;stroke-linejoin:round;stroke-dasharray:none;paint-order:markers stroke fill"
     id="path4-4"
     cx="20.289648"
     cy="17.071142"
     rx="2.455981"
     ry="2.8722279" /><ellipse
     style="fill:none;stroke:#ffffff;stroke-width:2.0552;stroke-linecap:round;stroke-linejoin:round;stroke-dasharray:none;paint-order:markers stroke fill"
     id="path4-4-0"
     cx="11.878407"
     cy="17.071142"
     rx="2.455981"
     ry="2.8722279" /><path
     style="fill:none;stroke:#ffffff;stroke-width:1;stroke-linecap:round;stroke-linejoin:round;stroke-dasharray:none;paint-order:markers stroke fill"
     d="M 3.3955042,10.71532 C 4.7649194,11.579203 6.3808679,12.047328 8,12.049199 c 1.608322,0.0019 3.214617,-0.456191 4.580065,-1.306047"
     id="path5"
     inkscape:path-effect="#path-effect5"
     inkscape:original-d="m 3.3955042,10.71532 c 0,0 3.0256374,1.311943 4.6044958,1.333879 1.5788584,0.02194 4.580065,-1.306047 4.580065,-1.306047"
     sodipodi:nodetypes="czc"
     transform="matrix(2.0551988,0,0,2.0551988,-0.37712431,-0.19985397)" /><path
     style="fill:none;stroke:#ffffff;stroke-width:1;stroke-linecap:round;stroke-linejoin:round;stroke-dasharray:none;paint-order:markers stroke fill"
     d="M 3.6181602,10.798816 C 4.9283015,11.604395 6.462022,12.042051 8,12.049199 c 1.4917621,0.0069 2.983465,-0.390625 4.273913,-1.139055"
     id="path5-9"
     inkscape:path-effect="#path-effect5-8"
     inkscape:original-d="m 3.6181602,10.798816 c 0,0 2.8029814,1.228447 4.3818398,1.250383 1.5788584,0.02194 4.273913,-1.139055 4.273913,-1.139055"
     sodipodi:nodetypes="czc"
     transform="matrix(-2.0551988,0,0,-2.0551988,32.480952,31.315736)" /><path
     style="fill:none;stroke:#ffffff;stroke-width:2.0552;stroke-linecap:round;stroke-linejoin:round;stroke-dasharray:none;paint-order:markers stroke fill"
     d="m 16.039361,11.411806 m 5.047083,12.659826 c 0.417386,0.797869 0.844395,2.288498 1.890908,2.798134 0.829865,0.202047 6.319254,-1.621395 7.32164,-3.83453 C 31.516738,20.346615 28.846618,10.336874 26.981375,7.9939163 25.634874,6.3025613 24.631432,5.9828802 23.41841,5.5311837 22.205387,5.079488 20.180738,4.9300575 19.945736,5.3624539 19.710733,5.7948503 19.558482,6.9332467 19.558482,6.9332467"
     id="path7"
     sodipodi:nodetypes="czzzzzc" /><path
     style="fill:none;stroke:#ffffff;stroke-width:2.0552;stroke-linecap:round;stroke-linejoin:round;stroke-dasharray:none;paint-order:markers stroke fill"
     d="M 16.039361,11.411806 M 10.992278,24.071632 C 10.574892,24.869501 10.147883,26.36013 9.1013692,26.869766 8.2715046,27.071813 2.7821158,25.248371 1.7797296,23.035236 0.56198317,20.346615 3.2321037,10.336874 5.0973466,7.9939163 6.4438471,6.3025613 7.4472897,5.9828802 8.6603112,5.5311837 9.8733348,5.079488 11.897984,4.9300575 12.132987,5.3624539 12.367989,5.7948503 12.52024,6.9332467 12.52024,6.9332467"
     id="path7-8"
     sodipodi:nodetypes="czzzzzc" /></svg>
